<?xml version="1.0" encoding="utf-8"?>
<!-- Generator: Adobe Illustrator 20.0.0, SVG Export Plug-In . SVG Version: 6.00 Build 0)  -->
<svg version="1.1" id="Layer_1" xmlns="http://www.w3.org/2000/svg" xmlns:xlink="http://www.w3.org/1999/xlink" x="0px" y="0px"
	 viewBox="0 0 200 100" style="enable-background:new 0 0 200 100;" xml:space="preserve">
<style type="text/css">
	.st0{fill:#B29356;stroke:#B29356;stroke-width:3;stroke-miterlimit:10;}
	.st1{fill:#C6A852;stroke:#BA9E4D;stroke-miterlimit:10;}
	.st2{fill:#8F3C42;}
	.st3{fill:none;stroke:#BA9E4D;stroke-width:2;stroke-miterlimit:10;}
</style>
<g id="pie_1_">
	<path id="bottom_crust" class="st0" d="M194.6,56l-3.7,17.4c-6.7,2.9-12.3,4.9-16.1,6.2c-5.6,1.9-29.9,6.6-64.6,8.4
		c-4,0.2-7.3,0.5-9.2,0.5h0.8c-2,0-5.2-0.3-9.2-0.5c-34.6-1.8-59-6.4-64.6-8.3c-3.7-1.3-9.3-3.3-16.1-6.2L8.1,56"/>
	<path id="pie_top_1_" class="st1" d="M6.2,56.3c3.4,3.4,4.8,2.7,5.4,2.7c0.2,0,0.7,0.1,1.3,0.1c0.9,0,1.7-0.2,2.4-0.3
		c-0.1,0.4-0.1,0.9,0,1.5c0.5,2.2,3.3,3.3,4.9,3.6c3.4,0.6,6-1.7,6.4-2c0.4,0.6,0.9,1.3,1.6,2c1.4,1.4,2.9,2,3.9,2.3
		c0.7,0.2,3.3,0.6,5.5-0.9c0.5-0.4,1-0.8,1.3-1.2c0.2,0.6,0.6,1.4,1.4,2.2c1.3,1.4,2.9,1.8,3.5,1.9c0.8,0.1,2.4,0.3,4.3-0.4
		c1.2-0.5,2.1-1.1,2.6-1.6c0.1,0.3,0.4,0.6,0.7,1.1c0.6,0.8,1.6,2.2,3.4,3c2.1,0.9,4.1,0.5,4.5,0.4c2.3-0.5,3.6-2.1,4-2.6
		c0.2,0.3,0.4,0.7,0.7,1.1c1.2,1.6,2.6,2.4,3.3,2.7c0.6,0.3,2,0.9,3.8,0.9c3.1-0.1,5.1-2.2,5.5-2.7c0.1,0.2,0.3,0.5,0.5,0.9
		c0.5,0.9,1.3,2.1,2.7,3c1.6,1,3.3,1,3.8,0.9c2.3-0.1,3.8-1.2,4.5-1.7c1-0.7,1.6-1.6,2-2.1c0.1,0.3,0.3,0.7,0.5,1.1
		c0.1,0.2,2,3.2,5.3,3.5c2.8,0.3,5.6-1.3,7.1-4c0.1,0.5,0.3,1.1,0.8,1.7c1.3,2,3.9,3.1,6.4,2.8c2.6-0.4,4.9-2.3,5.7-5
		c0.3,0.3,0.6,0.8,1.1,1.2c0.9,0.8,3.5,3.2,6.5,2.5c2.2-0.5,3.9-2.4,4.7-4.8c0.2,0.3,0.6,0.7,1,1.1c0.5,0.4,3.7,3.3,7.5,2.3
		c2.9-0.8,4.3-3.4,4.6-3.9c0.3,0.2,0.8,0.4,1.4,0.8c2.1,1.1,3.1,1.6,4.2,1.8c1.7,0.3,3.1-0.3,3.5-0.4c2.1-0.8,3.2-2.5,3.6-3.1
		c0.3,0.3,0.8,0.7,1.4,1c0.5,0.3,1.8,1.1,3.4,1.3c0.7,0.1,3.2,0.5,5.5-1.1c1.3-0.9,2-2.1,2.3-2.8c0.4,0.3,1,0.7,1.7,1.1
		c0.6,0.3,1.7,0.9,3.1,1.1c0.6,0.1,3,0.4,5.2-1c1.3-0.8,2-1.8,2.2-2c0.4-0.6,0.7-1.1,0.8-1.5c0.3,0.2,0.8,0.4,1.4,0.6
		c1.7,0.5,3.2,0.1,4-0.1c1-0.3,2.4-0.6,3.6-2c1.3-1.4,1.5-3,1.6-3.6c0.4,0,1-0.1,1.6-0.4c0.5-0.2,1.9-0.7,3-2
		c0.5-0.6,1.9-2.1,1.6-3.8c-0.2-1.3-1.3-2-1.8-2.4c-1.7-1.2-6.7-2.2-13.7-6.7c-3.1-2-6.7-4.3-10.5-6.9c-4.4-2.2-10-5.9-16.6-8.4
		c-9.6-3.7-10.3-4.3-18.9-8.1c-8.4-3.6-18.7-4.6-31.1-4.2c-10,0.4-17.2,2.5-28.8,5.9c-12.3,3.6-9.9,4.2-25.3,9.2
		c0,0-9.4,4.1-21.3,9.5c-5.6,2.5-14.2,7.8-17.8,8.9c-1.3,0.4-2.3,0.4-4.1,1c-1.4,0.5-1.9,0.8-2,1.2C4.3,53.2,4.5,54.7,6.2,56.3z"/>
	<g id="air_vents">
		<path id="heart_1_" class="st2" d="M84.2,20.3c-0.7,0.6-2.3,1.9-2.1,3.8c0.1,1.4,1.2,2.6,2.4,3.1c2.5,0.9,5-1.7,6.1-2.7
			c2.4-2.2,2.8-4.8,3.4-6.6l0-0.1c-1,0-2.4,0.1-4.2,0.5C87.2,18.8,85.7,19.1,84.2,20.3z"/>
		<path id="heart_4_" class="st2" d="M119,17c0,0.1,0,0.3,0,0.4c1,1.7,1.5,4.2,4,6.3c1.1,0.9,4,3.4,6.5,2.3c1.1-0.5,2.2-1.7,2.2-3.2
			c-0.1-2.4-2.2-3.8-2.5-3.9c-0.4-0.2-0.9-0.4-1.9-0.6c-0.8-0.2-2.1-0.5-4.6-0.8C121.7,17.3,120.4,17.1,119,17z"/>
		<path id="heart" class="st2" d="M106.7,28.1c0.4,1.4,1.9,2.7,3.2,2.9c1.6,0.3,2.9-0.7,3.5-1.7c1.4-2.3-0.5-5.3-1.2-6.5
			c-1.6-2.8-4.1-3.8-5.6-4.8h-0.1c-1.6,1-4,2-5.6,4.8c-0.7,1.3-2.7,4.4-1.2,6.7c0.6,1,2,1.9,3.5,1.6
			C104.5,30.9,106.4,29.5,106.7,28.1"/>
	</g>
	<path id="pie_crust_1_" class="st3" d="M6.4,51.5c0.1,0.3,1,2.2,2,3.2c1,1,2.1,1.2,3.6,1.5c0.3,0.1,1.7,0.3,3.5,0.2
		c0.6-0.1,1.1-0.2,1.5-0.2c-0.1,0.3-0.5,1.5,0.2,2.7c0.6,1,1.6,1.4,2.6,1.7c0.4,0.1,1.8,0.5,3.6,0.2c1.2-0.3,2.2-0.8,2.8-1.2
		c0.5-0.3,0.8-0.5,1.1-0.8c0.2,0.5,1.7,3.6,5,4.4c0.3,0.1,2.8,0.7,4.5-0.3c0.3-0.2,1-0.7,1.7-1.2c0.4-0.4,0.8-0.7,1-1
		c0.2,0.6,0.7,2.1,2.2,3.3c1.8,1.4,3.7,1.4,4.2,1.4c0.3,0,2.5-0.1,4.3-1.6c0.4-0.3,0.7-0.7,0.9-0.9c0.4,0.7,1.1,1.9,2.3,3
		c0.7,0.6,2.9,2.4,5.5,1.9c1.7-0.3,3-1.6,3.7-2.2c0.4-0.4,0.7-0.7,0.9-1c1.9,3.5,5,5.9,7.5,5.5c1.5-0.2,3.5-1.4,4.8-2.4
		c0.5-0.4,0.9-0.7,1.2-1c0.2,0.5,0.6,1.2,1.2,2c0.9,1.1,2.5,3.1,4.8,3.2c1.3,0.1,2.2-0.5,3.5-1.2c1.4-0.7,2.3-1.7,2.8-2.2
		c0.5-0.5,0.8-0.9,1.1-1.2c1.6,3.1,4.2,5.2,6.5,5c1.2-0.1,2.6-0.9,2.8-1c0.4-0.3,1.7-1,2.8-2.4c0.3-0.5,0.6-0.9,0.8-1.2
		c0.5,2.6,2.3,4.7,4.6,5.2c0.3,0.1,2.2,0.5,3.9-0.4c1.6-0.8,2.4-2.4,3.1-3.8c0.3-0.5,0.5-1,0.6-1.3c2.7,3.5,6.1,5.3,8.1,4.4
		c0.4-0.2,1.4-0.7,2.2-1.7c0.5-0.5,0.8-1.2,1.6-2.6c0.2-0.5,0.4-0.8,0.6-1.1c3.2,3.2,6.8,4.8,8.6,4c0.9-0.4,1.7-1.1,1.7-1.1
		c0.8-0.7,1.4-1.5,2-2.4c0.2-0.3,0.3-0.5,0.5-0.8c1.6,0.8,2.9,1.5,3.9,1.9c2.6,1.2,3.3,1.2,3.9,1.1c1.3-0.2,2.3-1.2,2.9-1.8
		c0.7-0.7,1.1-1.3,1.4-1.8l0.6-0.9c0.8,0.9,2.6,2.6,5.4,3.1c0.9,0.2,2.2,0.4,3.6-0.2c2.1-0.9,2.9-2.9,3.1-3.3
		c0.2-0.5,0.3-0.8,0.4-1.1c0.6,0.7,1.6,1.8,3.4,2.5c1,0.4,3,1.3,5.2,0.5c2.6-0.9,3.7-3.5,3.9-4.2c0.2-0.4,0.3-0.7,0.3-1
		c0.2,0.1,3.6,2.4,6.5,1c1.1-0.5,1.9-1.5,2.1-1.8c0.3-0.4,1.1-1.5,1.2-3.1c0-0.4,0-0.7,0-0.9c1,0,2.6-0.1,4.1-1.5
		c0.3-0.3,1.7-2.4,2-3.4"/>
</g>
</svg>
